<?xml version="1.0" encoding="utf-8"?>
<!-- Generator: Adobe Illustrator 19.2.1, SVG Export Plug-In . SVG Version: 6.00 Build 0)  -->
<svg version="1.1" id="Layer_1" xmlns="http://www.w3.org/2000/svg" xmlns:xlink="http://www.w3.org/1999/xlink" x="0px" y="0px"
	 viewBox="0 0 225 335" style="enable-background:new 0 0 225 335;" xml:space="preserve">
<style type="text/css">
	.st0{fill:#FFFFFF;}
</style>
<path id="linha" d="M220.7,5.4L5.6,63v269.1l215.2-57.6V5.4z"/>
<path id="ee" class="st0" d="M61.3,97.8c13.2-3.5,19.8-5.2,33.3-8.8c0,3.8,0,5.9,0,10c-9.4,2.5-14.1,3.8-23.4,6.2c0,5.3,0,8,0,13.6
	c8.9-2.4,13.4-3.6,22.5-6c0,4.4,0,6.7,0,11.4c-9.1,2.4-13.6,3.6-22.5,6c0,6,0,9,0,15.2c9.6-2.5,14.5-3.8,24.4-6.5
	c0,4.8,0,7.3,0,12.2c-13.9,3.7-20.9,5.6-34.2,9.1V97.8z"/>
<path id="n" class="st0" d="M153.7,129.1c0.5-0.1,0.8-0.2,1.4-0.4c-0.1-24.4-0.1-36.5-0.2-55.8c4.1-1.1,6.1-1.6,10.2-2.7v62.2
	c-7.7,2.1-11.6,3.2-19.5,5.3c-2.6-24-4-35.9-6.6-55.4c-0.6,0.2-0.8,0.2-1.4,0.4c0.1,20.1,0.2,32.4,0.4,57.1
	c-4.1,1.1-6.1,1.6-10.2,2.7c-0.1-20.7-0.2-41.5-0.4-62.2c7.9-2.1,11.9-3.2,19.8-5.3C149.8,93.6,151.1,105.3,153.7,129.1"/>
<path id="e" class="st0" d="M61.3,204.9c12.9-3.4,19.7-5.2,33.3-8.9c0,4.9,0,7.4,0,12.2c-9.6,2.6-14.4,3.8-23.6,6.3
	c0,6.1,0,9.1,0,15c8.9-2.4,13.5-3.6,22.7-6.1c0,4.6,0,6.9,0,11.4c-9.2,2.5-13.8,3.7-22.7,6.1c0,5.7,0,8.5,0,13.8
	c9.6-2.6,14.6-3.9,24.6-6.6c0,4.1,0,6.1,0,10c-14.2,3.8-21.2,5.7-34.3,9.2V204.9z"/>
<path id="i" class="st0" d="M128.7,186.9c14.5-3.9,21.7-5.9,35.5-9.7c0,4.9,0,7.3,0,12.1c-4.9,1.4-7.4,2-12.5,3.4
	c0.1,17.1,0.1,25.4,0.2,40.1c5-1.4,7.5-2.1,12.3-3.4c0,4.1,0,6.1,0,10c-13.3,3.7-20.5,5.7-35.1,9.7c0-3.8,0-5.8-0.1-10
	c5.2-1.4,7.8-2.1,13-3.6c-0.1-14.7-0.2-23-0.3-40.1c-5.1,1.4-7.7,2.1-12.9,3.5C128.8,194.2,128.8,191.8,128.7,186.9"/>
</svg>
