<?xml version="1.0" encoding="utf-8"?>
<!-- Generator: Adobe Illustrator 19.2.1, SVG Export Plug-In . SVG Version: 6.00 Build 0)  -->
<svg version="1.1" id="Layer_1" xmlns="http://www.w3.org/2000/svg" xmlns:xlink="http://www.w3.org/1999/xlink" x="0px" y="0px"
	 viewBox="0 0 34.6 34.6" style="enable-background:new 0 0 34.6 34.6;" xml:space="preserve">
<style type="text/css">
	.st0{display:none;fill:none;stroke:#FFFFFF;stroke-width:6;stroke-miterlimit:10;}
	.st1{display:none;}
	.st2{display:inline;}
	.st3{display:inline;clip-path:url(#SVGID_4_);fill:#FFFFFF;}
	.st4{display:inline;clip-path:url(#SVGID_4_);fill:#993D3F;}
	.st5{display:inline;clip-path:url(#SVGID_6_);fill:#FFFFFF;}
	.st6{display:inline;clip-path:url(#SVGID_6_);fill:none;stroke:#FFFFFF;stroke-width:2;stroke-miterlimit:10;}
	.st7{display:inline;clip-path:url(#SVGID_6_);fill-rule:evenodd;clip-rule:evenodd;fill:#FFFFFF;}
	.st8{display:inline;clip-path:url(#SVGID_6_);fill:none;stroke:#FFFFFF;stroke-width:3;stroke-miterlimit:10;}
	.st9{display:inline;clip-path:url(#SVGID_6_);fill:none;stroke:#FFFFFF;stroke-width:3.342;stroke-miterlimit:10;}
	.st10{display:inline;clip-path:url(#SVGID_6_);}
	.st11{display:inline;clip-path:url(#SVGID_6_);fill:none;stroke:#FFFFFF;stroke-width:2.394;stroke-miterlimit:10;}
	.st12{display:none;fill:#993D3F;}
	.st13{fill:none;stroke:#000000;stroke-width:2;stroke-miterlimit:10;}
	.st14{clip-path:url(#SVGID_8_);}
	.st15{fill-rule:evenodd;clip-rule:evenodd;}
</style>
<text transform="matrix(1 0 0 1 -115.9365 -331.2238)" class="st1"><tspan x="0" y="0" style="display:inline;fill:#FFFFFF; font-family:'Montserrat-Regular'; font-size:13px;">O obj</tspan><tspan x="34.8" y="0" style="display:inline;fill:#FFFFFF; font-family:'Montserrat-Regular'; font-size:13px;">e</tspan><tspan x="42.7" y="0" style="display:inline;fill:#FFFFFF; font-family:'Montserrat-Regular'; font-size:13px;">ti</tspan><tspan x="51.4" y="0" style="display:inline;fill:#FFFFFF; font-family:'Montserrat-Regular'; font-size:13px;">v</tspan><tspan x="58.4" y="0" style="display:inline;fill:#FFFFFF; font-family:'Montserrat-Regular'; font-size:13px;">o dos segui</tspan><tspan x="132" y="0" style="display:inline;fill:#FFFFFF; font-family:'Montserrat-Regular'; font-size:13px;">n</tspan><tspan x="140.7" y="0" style="display:inline;fill:#FFFFFF; font-family:'Montserrat-Regular'; font-size:13px;">tes b</tspan><tspan x="172.4" y="0" style="display:inline;fill:#FFFFFF; font-family:'Montserrat-Regular'; font-size:13px;">o</tspan><tspan x="180.5" y="0" style="display:inline;fill:#FFFFFF; font-family:'Montserrat-Regular'; font-size:13px;">tões diz respei</tspan><tspan x="273.5" y="0" style="display:inline;fill:#FFFFFF; font-family:'Montserrat-Regular'; font-size:13px;">t</tspan><tspan x="278.7" y="0" style="display:inline;fill:#FFFFFF; font-family:'Montserrat-Regular'; font-size:13px;">o à </tspan></text>
<text transform="matrix(1 0 0 1 -115.9365 -315.6237)" style="display:none;fill:#FFFFFF; font-family:'Montserrat-Regular'; font-size:13px;">utilização no website. </text>
<text transform="matrix(1 0 0 1 -115.9365 -300.0236)" class="st1"><tspan x="0" y="0" style="display:inline;fill:#FFFFFF; font-family:'Montserrat-Regular'; font-size:13px;">P</tspan><tspan x="9.3" y="0" style="display:inline;fill:#FFFFFF; font-family:'Montserrat-Regular'; font-size:13px;">oderá </tspan><tspan x="50.4" y="0" style="display:inline;fill:#FFFFFF; font-family:'Montserrat-Regular'; font-size:13px;">v</tspan><tspan x="57.3" y="0" style="display:inline;fill:#FFFFFF; font-family:'Montserrat-Regular'; font-size:13px;">ariar a </tspan><tspan x="101.1" y="0" style="display:inline;fill:#FFFFFF; font-family:'Montserrat-Regular'; font-size:13px;">c</tspan><tspan x="108.3" y="0" style="display:inline;fill:#FFFFFF; font-family:'Montserrat-Regular'; font-size:13px;">or pa</tspan><tspan x="141.5" y="0" style="display:inline;fill:#FFFFFF; font-family:'Montserrat-Regular'; font-size:13px;">r</tspan><tspan x="146.7" y="0" style="display:inline;fill:#FFFFFF; font-family:'Montserrat-Regular'; font-size:13px;">a uma das 5 altern</tspan><tspan x="266.7" y="0" style="display:inline;fill:#FFFFFF; font-family:'Montserrat-Regular'; font-size:13px;">a</tspan><tspan x="274.3" y="0" style="display:inline;fill:#FFFFFF; font-family:'Montserrat-Regular'; font-size:13px;">ti</tspan><tspan x="283.1" y="0" style="display:inline;fill:#FFFFFF; font-family:'Montserrat-Regular'; font-size:13px;">v</tspan><tspan x="290.1" y="0" style="display:inline;fill:#FFFFFF; font-family:'Montserrat-Regular'; font-size:13px;">as, </tspan></text>
<text transform="matrix(1 0 0 1 -115.9365 -284.424)" class="st1"><tspan x="0" y="0" style="display:inline;fill:#FFFFFF; font-family:'Montserrat-Regular'; font-size:13px;">assim </tspan><tspan x="41.1" y="0" style="display:inline;fill:#FFFFFF; font-family:'Montserrat-Regular'; font-size:13px;">c</tspan><tspan x="48.3" y="0" style="display:inline;fill:#FFFFFF; font-family:'Montserrat-Regular'; font-size:13px;">omo o t</tspan><tspan x="98.6" y="0" style="display:inline;fill:#FFFFFF; font-family:'Montserrat-Regular'; font-size:13px;">e</tspan><tspan x="106.3" y="0" style="display:inline;fill:#FFFFFF; font-family:'Montserrat-Regular'; font-size:13px;">x</tspan><tspan x="113.3" y="0" style="display:inline;fill:#FFFFFF; font-family:'Montserrat-Regular'; font-size:13px;">t</tspan><tspan x="118.5" y="0" style="display:inline;fill:#FFFFFF; font-family:'Montserrat-Regular'; font-size:13px;">o aprese</tspan><tspan x="173.8" y="0" style="display:inline;fill:#FFFFFF; font-family:'Montserrat-Regular'; font-size:13px;">n</tspan><tspan x="182.5" y="0" style="display:inline;fill:#FFFFFF; font-family:'Montserrat-Regular'; font-size:13px;">tado.</tspan></text>
<text transform="matrix(1 0 0 1 -115.9365 -253.2238)" class="st1"><tspan x="0" y="0" style="display:inline;fill:#FFFFFF; font-family:'Montserrat-Regular'; font-size:13px;">P</tspan><tspan x="9.3" y="0" style="display:inline;fill:#FFFFFF; font-family:'Montserrat-Regular'; font-size:13px;">ode ser al</tspan><tspan x="71.5" y="0" style="display:inline;fill:#FFFFFF; font-family:'Montserrat-Regular'; font-size:13px;">e</tspan><tspan x="79.3" y="0" style="display:inline;fill:#FFFFFF; font-family:'Montserrat-Regular'; font-size:13px;">t</tspan><tspan x="84.6" y="0" style="display:inline;fill:#FFFFFF; font-family:'Montserrat-Regular'; font-size:13px;">r</tspan><tspan x="89.7" y="0" style="display:inline;fill:#FFFFFF; font-family:'Montserrat-Regular'; font-size:13px;">ada a </tspan><tspan x="128.4" y="0" style="display:inline;fill:#FFFFFF; font-family:'Montserrat-Regular'; font-size:13px;">c</tspan><tspan x="135.5" y="0" style="display:inline;fill:#FFFFFF; font-family:'Montserrat-Regular'; font-size:13px;">or e t</tspan><tspan x="168.8" y="0" style="display:inline;fill:#FFFFFF; font-family:'Montserrat-Regular'; font-size:13px;">e</tspan><tspan x="176.6" y="0" style="display:inline;fill:#FFFFFF; font-family:'Montserrat-Regular'; font-size:13px;">x</tspan><tspan x="183.5" y="0" style="display:inline;fill:#FFFFFF; font-family:'Montserrat-Regular'; font-size:13px;">t</tspan><tspan x="188.7" y="0" style="display:inline;fill:#FFFFFF; font-family:'Montserrat-Regular'; font-size:13px;">o </tspan><tspan x="200.3" y="0" style="display:inline;fill:#FFFFFF; font-family:'Montserrat-Regular'; font-size:13px;">c</tspan><tspan x="207.5" y="0" style="display:inline;fill:#FFFFFF; font-family:'Montserrat-Regular'; font-size:13px;">onsoa</tspan><tspan x="246.6" y="0" style="display:inline;fill:#FFFFFF; font-family:'Montserrat-Regular'; font-size:13px;">n</tspan><tspan x="255.3" y="0" style="display:inline;fill:#FFFFFF; font-family:'Montserrat-Regular'; font-size:13px;">te a </tspan></text>
<text transform="matrix(1 0 0 1 -115.9365 -237.6237)" class="st1"><tspan x="0" y="0" style="display:inline;fill:#FFFFFF; font-family:'Montserrat-Regular'; font-size:13px;">necessidade de </tspan><tspan x="104.7" y="0" style="display:inline;fill:#FFFFFF; font-family:'Montserrat-Regular'; font-size:13px;">c</tspan><tspan x="111.9" y="0" style="display:inline;fill:#FFFFFF; font-family:'Montserrat-Regular'; font-size:13px;">ada situação.</tspan></text>
<polygon class="st0" points="508.2,-140.5 355.3,-99.7 355.3,-143.3 508.2,-181.3 "/>
<g class="st1">
	<defs>
		<rect id="SVGID_1_" x="-162.6" y="-427.2" width="841.9" height="595.3"/>
	</defs>
	<clipPath id="SVGID_2_" class="st2">
		<use xlink:href="#SVGID_1_"  style="overflow:visible;"/>
	</clipPath>
	<g style="display:inline;clip-path:url(#SVGID_2_);">
		<text transform="matrix(1.0882 -0.2843 5.426255e-002 0.9985 362.3272 -119.1014)"><tspan x="0" y="0" style="fill:#FFFFFF; font-family:'Montserrat-SemiBold'; font-size:14.0373px;">GET </tspan><tspan x="32.6" y="0" style="fill:#FFFFFF; font-family:'Montserrat-SemiBold'; font-size:14.0373px;">Y</tspan><tspan x="41.6" y="0" style="fill:#FFFFFF; font-family:'Montserrat-SemiBold'; font-size:14.0373px;">OUR TICKET</tspan></text>
	</g>
	<g style="display:inline;clip-path:url(#SVGID_2_);">
		
			<text transform="matrix(1.0882 -0.2843 5.426255e-002 0.9985 395.0986 -59.7111)" style="fill:#FFFFFF; font-family:'Montserrat-SemiBold'; font-size:14.0373px;">SUBSCRIBE</text>
	</g>
</g>
<polygon class="st0" points="498,-76 380.6,-43.5 380.6,-80.2 498,-111.7 "/>
<rect x="-112.5" y="-144.1" class="st0" width="179.8" height="40.6"/>
<text transform="matrix(1.1247 0 0 1 -100.917 -118.1271)" class="st1"><tspan x="0" y="0" style="display:inline;fill:#FFFFFF; font-family:'Montserrat-SemiBold'; font-size:15.537px;">GET </tspan><tspan x="36" y="0" style="display:inline;fill:#FFFFFF; font-family:'Montserrat-SemiBold'; font-size:15.537px;">Y</tspan><tspan x="46" y="0" style="display:inline;fill:#FFFFFF; font-family:'Montserrat-SemiBold'; font-size:15.537px;">OUR TICKET</tspan></text>
<rect x="-94.9" y="-84.2" class="st0" width="134.9" height="40.6"/>
<text transform="matrix(1.1247 0 0 1 -79.4111 -57.2492)" style="display:none;fill:#FFFFFF; font-family:'Montserrat-SemiBold'; font-size:15.537px;">SUBSCRIBE</text>
<g class="st1">
	<defs>
		<rect id="SVGID_3_" x="-162.6" y="-427.2" width="841.9" height="595.3"/>
	</defs>
	<clipPath id="SVGID_4_" class="st2">
		<use xlink:href="#SVGID_3_"  style="overflow:visible;"/>
	</clipPath>
	<path class="st3" d="M218.9-126.2c-0.4-0.2-1-0.3-1.9-0.3h-2.2v3.4h2.1c1,0,1.7-0.1,2-0.4c0.4-0.3,0.5-0.7,0.5-1.4
		C219.5-125.5,219.3-126,218.9-126.2"/>
	<path class="st3" d="M115.7-101.7h190.7v-43H115.7V-101.7z M140.9-119c-1.3,1.3-3.1,1.9-5.3,1.9c-1.9,0-3.5-0.6-4.8-1.7
		c-1.3-1.1-1.9-2.5-1.9-4.2c0-1.7,0.7-3.1,2-4.3c1.3-1.1,2.9-1.7,4.8-1.7s3.5,0.5,4.8,1.6l-1.5,1.9c-0.6-0.5-1.1-0.8-1.6-0.9
		c-0.5-0.2-1-0.3-1.6-0.3c-1.1,0-2,0.3-2.8,1c-0.8,0.7-1.1,1.5-1.1,2.6s0.4,2,1.1,2.6c0.7,0.7,1.6,1,2.6,1c1,0,1.8-0.2,2.5-0.5v-3.2
		h2.9V-119z M153-117.2h-9.5v-11.5h9.3v2.3h-6.4v2.4h5.8v2.2h-5.8v2.4h6.7V-117.2z M164.7-126.5H161v9.3h-2.9v-9.3h-3.7v-2.2h10.2
		V-126.5z M177.3-121.8v4.5h-2.9v-4.5l-4.5-7h3.1l2.8,4.3l2.8-4.3h3.1L177.3-121.8z M193.6-118.8c-1.3,1.1-2.9,1.7-4.8,1.7
		c-1.9,0-3.5-0.6-4.8-1.7c-1.3-1.1-2-2.6-2-4.2c0-1.7,0.7-3.1,2-4.2c1.3-1.1,2.9-1.7,4.8-1.7c1.9,0,3.5,0.6,4.8,1.7
		c1.3,1.1,2,2.6,2,4.2C195.6-121.4,194.9-119.9,193.6-118.8 M208.9-122.3c0,1.7-0.5,3-1.6,3.8c-1,0.9-2.4,1.3-4,1.3
		c-1.6,0-2.9-0.5-4-1.4c-1-0.9-1.6-2.2-1.6-3.8v-6.4h2.9v6.4c0,0.9,0.2,1.6,0.7,2.2c0.5,0.5,1.1,0.8,1.9,0.8c0.8,0,1.5-0.3,1.9-0.8
		c0.5-0.5,0.7-1.3,0.7-2.2v-6.4h2.9V-122.3z M219.7-117.2l-2.9-3.7h-2v3.7h-2.9v-11.5h4.9c2,0,3.4,0.3,4.3,0.9
		c0.9,0.6,1.3,1.6,1.3,2.9c0,1.8-0.8,3-2.5,3.6l3.3,4.1H219.7z M239.4-126.5h-3.7v9.3h-2.9v-9.3h-3.7v-2.2h10.2V-126.5z
		 M244.4-117.2h-2.9v-11.5h2.9V-117.2z M250.9-120.5c0.7,0.6,1.6,1,2.6,1c1.4,0,2.6-0.5,3.5-1.5l1.9,1.7c-1.5,1.5-3.2,2.2-5.2,2.2
		c-2,0-3.6-0.6-4.9-1.7c-1.3-1.1-1.9-2.5-1.9-4.2c0-1.7,0.7-3.1,2-4.3c1.3-1.1,2.9-1.7,4.8-1.7c2.1,0,3.9,0.7,5.3,2.2l-1.8,1.8
		c-0.9-1-2.1-1.5-3.4-1.5c-1.1,0-2,0.3-2.8,0.9c-0.8,0.6-1.2,1.5-1.2,2.6C249.8-122,250.2-121.1,250.9-120.5 M269.9-120.6
		c1.2,1.5,2.1,2.6,2.7,3.4h-3.4l-3.8-4.5l-1.3,1.3v3.3h-2.9v-11.5h2.9v4.7l4.9-4.7h3.6l-5.2,5.1
		C267.8-123.1,268.7-122.1,269.9-120.6 M283.9-117.2h-9.5v-11.5h9.3v2.3h-6.4v2.4h5.8v2.2h-5.8v2.4h6.7V-117.2z M295.6-126.5h-3.7
		v9.3h-2.9v-9.3h-3.7v-2.2h10.2V-126.5z"/>
	<path class="st3" d="M188.8-126.8c-1.1,0-2,0.4-2.7,1.1c-0.7,0.7-1.1,1.6-1.1,2.6c0,1,0.4,1.9,1.1,2.6c0.7,0.7,1.7,1.1,2.7,1.1
		c1.1,0,2-0.4,2.7-1.1c0.7-0.7,1.1-1.6,1.1-2.6c0-1-0.4-1.9-1.1-2.6C190.8-126.4,189.9-126.8,188.8-126.8"/>
	<path class="st4" d="M138-119.9c-0.7,0.3-1.5,0.5-2.5,0.5c-1,0-1.9-0.3-2.6-1c-0.7-0.7-1.1-1.5-1.1-2.6s0.4-2,1.1-2.6
		c0.8-0.7,1.7-1,2.8-1c0.6,0,1.1,0.1,1.6,0.3c0.5,0.2,1,0.5,1.6,0.9l1.5-1.9c-1.4-1.1-3-1.6-4.8-1.6c-1.9,0-3.4,0.6-4.8,1.7
		c-1.3,1.1-2,2.6-2,4.3c0,1.7,0.6,3.1,1.9,4.2c1.3,1.1,2.9,1.7,4.8,1.7c2.3,0,4.1-0.6,5.3-1.9v-4.1H138V-119.9z"/>
	<polygon class="st4" points="146.3,-121.9 152.1,-121.9 152.1,-124.1 146.3,-124.1 146.3,-126.4 152.8,-126.4 152.8,-128.7 
		143.4,-128.7 143.4,-117.2 153,-117.2 153,-119.5 146.3,-119.5 	"/>
	<polygon class="st4" points="154.5,-126.5 158.2,-126.5 158.2,-117.2 161,-117.2 161,-126.5 164.7,-126.5 164.7,-128.7 
		154.5,-128.7 	"/>
	<polygon class="st4" points="175.8,-124.5 173.1,-128.7 169.9,-128.7 174.4,-121.8 174.4,-117.2 177.3,-117.2 177.3,-121.8 
		181.8,-128.7 178.6,-128.7 	"/>
	<path class="st4" d="M193.6-127.3c-1.3-1.1-2.9-1.7-4.8-1.7c-1.9,0-3.5,0.6-4.8,1.7c-1.3,1.1-2,2.6-2,4.2c0,1.7,0.7,3.1,2,4.2
		c1.3,1.1,2.9,1.7,4.8,1.7c1.9,0,3.5-0.6,4.8-1.7c1.3-1.1,2-2.6,2-4.2C195.6-124.7,194.9-126.2,193.6-127.3 M191.5-120.4
		c-0.7,0.7-1.7,1.1-2.7,1.1c-1.1,0-2-0.4-2.7-1.1c-0.7-0.7-1.1-1.6-1.1-2.6c0-1,0.4-1.9,1.1-2.6s1.7-1.1,2.7-1.1
		c1.1,0,2,0.4,2.7,1.1c0.7,0.7,1.1,1.6,1.1,2.6C192.6-122,192.2-121.1,191.5-120.4"/>
	<path class="st4" d="M206-122.4c0,0.9-0.2,1.7-0.7,2.2c-0.5,0.5-1.1,0.8-1.9,0.8c-0.8,0-1.5-0.3-1.9-0.8c-0.5-0.5-0.7-1.3-0.7-2.2
		v-6.4h-2.9v6.4c0,1.7,0.5,2.9,1.6,3.8c1,0.9,2.4,1.4,4,1.4c1.6,0,2.9-0.4,4-1.3c1-0.9,1.6-2.2,1.6-3.8v-6.4H206V-122.4z"/>
	<path class="st4" d="M222.4-124.9c0-1.3-0.4-2.3-1.3-2.9c-0.9-0.6-2.3-0.9-4.3-0.9h-4.9v11.5h2.9v-3.7h2l2.9,3.7h3.6l-3.3-4.1
		C221.6-121.9,222.4-123.1,222.4-124.9 M218.9-123.5c-0.4,0.3-1,0.4-2,0.4h-2.1v-3.4h2.2c0.9,0,1.6,0.1,1.9,0.3
		c0.4,0.2,0.6,0.7,0.6,1.3C219.5-124.3,219.3-123.8,218.9-123.5"/>
	<polygon class="st4" points="229.2,-126.5 232.9,-126.5 232.9,-117.2 235.8,-117.2 235.8,-126.5 239.4,-126.5 239.4,-128.7 
		229.2,-128.7 	"/>
	<rect x="241.5" y="-128.7" class="st4" width="2.9" height="11.5"/>
	<path class="st4" d="M253.8-126.5c1.4,0,2.5,0.5,3.4,1.5l1.8-1.8c-1.4-1.4-3.2-2.2-5.3-2.2c-1.9,0-3.5,0.6-4.8,1.7
		c-1.3,1.1-2,2.6-2,4.3c0,1.7,0.6,3.1,1.9,4.2c1.3,1.1,2.9,1.7,4.9,1.7c2,0,3.7-0.7,5.2-2.2l-1.9-1.7c-0.9,1-2.1,1.5-3.5,1.5
		c-1,0-1.9-0.3-2.6-1c-0.7-0.6-1.1-1.5-1.1-2.6c0-1.1,0.4-1.9,1.2-2.6C251.8-126.2,252.7-126.5,253.8-126.5"/>
	<path class="st4" d="M269-128.7l-4.9,4.7v-4.7h-2.9v11.5h2.9v-3.3l1.3-1.3l3.8,4.5h3.4c-0.6-0.7-1.5-1.9-2.7-3.4
		c-1.2-1.5-2-2.5-2.5-3.1l5.1-5.1H269z"/>
	<polygon class="st4" points="277.2,-121.9 283,-121.9 283,-124.1 277.2,-124.1 277.2,-126.4 283.7,-126.4 283.7,-128.7 
		274.3,-128.7 274.3,-117.2 283.9,-117.2 283.9,-119.5 277.2,-119.5 	"/>
	<polygon class="st4" points="285.4,-126.5 289.1,-126.5 289.1,-117.2 291.9,-117.2 291.9,-126.5 295.6,-126.5 295.6,-128.7 
		285.4,-128.7 	"/>
	<path class="st3" d="M185-64c0.4-0.2,0.6-0.5,0.6-1c0-0.5-0.2-0.8-0.5-1c-0.4-0.2-1-0.2-1.8-0.2h-1.4v2.5h1.4
		C184.1-63.7,184.6-63.8,185-64"/>
	<path class="st3" d="M224.1-65.8c-0.4-0.2-1-0.3-1.9-0.3H220v3.4h2.1c1,0,1.7-0.1,2-0.4c0.4-0.3,0.5-0.7,0.5-1.4
		C224.7-65.2,224.5-65.6,224.1-65.8"/>
	<path class="st3" d="M135.2-42.4h143v-43h-143V-42.4z M161.3-57.7c-0.9,0.6-2,1-3.4,1c-2.1,0-3.9-0.7-5.5-2l1.7-1.9
		c1.4,1.1,2.7,1.6,3.9,1.6c0.5,0,0.9-0.1,1.3-0.3c0.3-0.2,0.5-0.5,0.5-0.8c0-0.3-0.2-0.6-0.5-0.8c-0.3-0.2-1-0.4-1.9-0.6
		c-1.5-0.3-2.6-0.7-3.3-1.2c-0.7-0.5-1-1.3-1-2.4c0-1.1,0.4-1.9,1.3-2.5c0.9-0.6,2-0.9,3.3-0.9c0.9,0,1.7,0.1,2.6,0.4
		c0.9,0.3,1.6,0.6,2.3,1.1l-1.5,1.9c-1.1-0.8-2.3-1.1-3.5-1.1c-0.5,0-0.9,0.1-1.1,0.3c-0.3,0.2-0.4,0.5-0.4,0.8
		c0,0.3,0.2,0.6,0.5,0.8c0.3,0.2,1.1,0.4,2.4,0.7s2.2,0.7,2.9,1.2c0.7,0.5,1,1.3,1,2.4C162.6-59.2,162.2-58.3,161.3-57.7 M176-61.9
		c0,1.7-0.5,3-1.6,3.8c-1,0.9-2.4,1.3-4,1.3s-2.9-0.4-4-1.3c-1-0.9-1.6-2.2-1.6-3.8v-6.4h2.9v6.4c0,0.9,0.2,1.6,0.7,2.2
		c0.5,0.5,1.1,0.8,1.9,0.8s1.5-0.3,1.9-0.8c0.5-0.5,0.7-1.3,0.7-2.2v-6.4h2.9V-61.9z M188.4-57.9c-0.7,0.7-2,1.1-3.7,1.1H179v-11.5
		h5c0.9,0,1.6,0.1,2.3,0.3c0.6,0.2,1.1,0.4,1.4,0.8c0.6,0.6,0.9,1.3,0.9,2c0,0.9-0.3,1.6-1,2c-0.2,0.2-0.4,0.3-0.5,0.3
		c-0.1,0-0.2,0.1-0.5,0.2c0.8,0.2,1.4,0.5,1.9,1c0.5,0.5,0.7,1.1,0.7,1.8C189.3-59.3,189-58.6,188.4-57.9 M199.8-57.7
		c-0.9,0.6-2,1-3.4,1c-2.1,0-3.9-0.7-5.5-2l1.7-1.9c1.4,1.1,2.7,1.6,3.9,1.6c0.5,0,0.9-0.1,1.3-0.3c0.3-0.2,0.5-0.5,0.5-0.8
		c0-0.3-0.2-0.6-0.5-0.8c-0.3-0.2-1-0.4-1.9-0.6c-1.5-0.3-2.6-0.7-3.3-1.2c-0.7-0.5-1-1.3-1-2.4c0-1.1,0.4-1.9,1.3-2.5
		c0.9-0.6,2-0.9,3.3-0.9c0.9,0,1.7,0.1,2.6,0.4c0.9,0.3,1.6,0.6,2.3,1.1l-1.5,1.9c-1.1-0.8-2.3-1.1-3.5-1.1c-0.5,0-0.9,0.1-1.1,0.3
		c-0.3,0.2-0.4,0.5-0.4,0.8c0,0.3,0.2,0.6,0.5,0.8c0.3,0.2,1.1,0.4,2.4,0.7c1.2,0.3,2.2,0.7,2.9,1.2c0.7,0.5,1,1.3,1,2.4
		C201.1-59.2,200.7-58.3,199.8-57.7 M206.9-60.1c0.7,0.6,1.6,1,2.6,1c1.4,0,2.6-0.5,3.5-1.5l1.9,1.7c-1.5,1.5-3.2,2.2-5.2,2.2
		c-2,0-3.6-0.6-4.9-1.7c-1.3-1.1-1.9-2.5-1.9-4.2c0-1.7,0.7-3.1,2-4.3c1.3-1.1,2.9-1.7,4.8-1.7c2.1,0,3.9,0.7,5.3,2.2l-1.8,1.8
		c-0.9-1-2.1-1.5-3.4-1.5c-1.1,0-2,0.3-2.8,0.9c-0.8,0.6-1.2,1.5-1.2,2.6C205.8-61.6,206.1-60.8,206.9-60.1 M224.9-56.9l-2.9-3.7h-2
		v3.7h-2.9v-11.5h4.9c2,0,3.4,0.3,4.3,0.9c0.9,0.6,1.3,1.6,1.3,2.9c0,1.8-0.8,3-2.5,3.6l3.3,4.1H224.9z M233.5-56.9h-2.9v-11.5h2.9
		V-56.9z M246.1-57.9c-0.7,0.7-2,1.1-3.7,1.1h-5.7v-11.5h5c0.9,0,1.6,0.1,2.3,0.3c0.6,0.2,1.1,0.4,1.4,0.8c0.6,0.6,0.9,1.3,0.9,2
		c0,0.9-0.3,1.6-1,2c-0.2,0.2-0.4,0.3-0.5,0.3c-0.1,0-0.2,0.1-0.5,0.2c0.8,0.2,1.4,0.5,1.9,1c0.5,0.5,0.7,1.1,0.7,1.8
		C247-59.3,246.7-58.6,246.1-57.9 M259-56.9h-9.5v-11.5h9.3v2.3h-6.4v2.4h5.8v2.2h-5.8v2.4h6.7V-56.9z"/>
	<path class="st3" d="M185.7-61.4c-0.4-0.2-1.1-0.3-2.1-0.3h-1.7v2.7h2c0.8,0,1.4-0.1,1.9-0.3c0.4-0.2,0.6-0.5,0.6-1.1
		C186.3-60.9,186.1-61.3,185.7-61.4"/>
	<path class="st3" d="M243.4-61.4c-0.4-0.2-1.1-0.3-2.1-0.3h-1.7v2.7h2c0.8,0,1.4-0.1,1.9-0.3c0.4-0.2,0.6-0.5,0.6-1.1
		C244-60.9,243.8-61.3,243.4-61.4"/>
	<path class="st3" d="M242.7-64c0.4-0.2,0.6-0.5,0.6-1c0-0.5-0.2-0.8-0.5-1c-0.4-0.2-1-0.2-1.8-0.2h-1.4v2.5h1.4
		C241.7-63.7,242.3-63.8,242.7-64"/>
	<path class="st4" d="M158.7-63.8c-1.2-0.3-2-0.5-2.4-0.7c-0.3-0.2-0.5-0.5-0.5-0.8c0-0.3,0.1-0.6,0.4-0.8c0.3-0.2,0.7-0.3,1.1-0.3
		c1.2,0,2.4,0.4,3.5,1.1l1.5-1.9c-0.6-0.5-1.4-0.9-2.3-1.1c-0.9-0.3-1.7-0.4-2.6-0.4c-1.3,0-2.4,0.3-3.3,0.9
		c-0.9,0.6-1.3,1.4-1.3,2.5c0,1.1,0.3,1.9,1,2.4c0.7,0.5,1.8,0.9,3.3,1.2c1,0.2,1.6,0.4,1.9,0.6c0.3,0.2,0.5,0.5,0.5,0.8
		c0,0.3-0.1,0.6-0.5,0.8c-0.3,0.2-0.7,0.3-1.3,0.3c-1.2,0-2.5-0.5-3.9-1.6l-1.7,1.9c1.6,1.3,3.5,2,5.5,2c1.4,0,2.6-0.3,3.4-1
		c0.9-0.6,1.3-1.5,1.3-2.5c0-1-0.3-1.8-1-2.4C160.9-63.1,160-63.5,158.7-63.8"/>
	<path class="st4" d="M173.1-62c0,0.9-0.2,1.7-0.7,2.2c-0.5,0.5-1.1,0.8-1.9,0.8c-0.8,0-1.5-0.3-1.9-0.8c-0.5-0.5-0.7-1.3-0.7-2.2
		v-6.4h-2.9v6.4c0,1.7,0.5,2.9,1.6,3.8c1,0.9,2.4,1.4,4,1.4c1.6,0,2.9-0.4,4-1.3c1-0.9,1.6-2.2,1.6-3.8v-6.4h-2.9V-62z"/>
	<path class="st4" d="M188.6-61.9c-0.5-0.5-1.1-0.8-1.9-1c0.2-0.1,0.4-0.2,0.5-0.2c0.1,0,0.2-0.1,0.5-0.3c0.7-0.4,1-1.1,1-2
		c0-0.7-0.3-1.4-0.9-2c-0.3-0.3-0.8-0.6-1.4-0.8c-0.6-0.2-1.4-0.3-2.3-0.3h-5v11.5h5.7c1.8,0,3-0.4,3.7-1.1c0.6-0.6,0.9-1.3,0.9-2.1
		C189.3-60.8,189.1-61.4,188.6-61.9 M181.9-66.2h1.4c0.9,0,1.5,0.1,1.8,0.2c0.4,0.2,0.5,0.5,0.5,1c0,0.5-0.2,0.8-0.6,1
		c-0.4,0.2-1,0.2-1.8,0.2h-1.4V-66.2z M185.7-59.3c-0.4,0.2-1,0.3-1.9,0.3h-2v-2.7h1.7c1,0,1.7,0.1,2.1,0.3c0.4,0.2,0.7,0.5,0.7,1.1
		S186.1-59.5,185.7-59.3"/>
	<path class="st4" d="M197.2-63.8c-1.2-0.3-2-0.5-2.4-0.7c-0.3-0.2-0.5-0.5-0.5-0.8c0-0.3,0.1-0.6,0.4-0.8c0.3-0.2,0.7-0.3,1.1-0.3
		c1.2,0,2.4,0.4,3.5,1.1l1.5-1.9c-0.6-0.5-1.4-0.9-2.3-1.1c-0.9-0.3-1.7-0.4-2.6-0.4c-1.3,0-2.4,0.3-3.3,0.9
		c-0.9,0.6-1.3,1.4-1.3,2.5c0,1.1,0.3,1.9,1,2.4c0.7,0.5,1.8,0.9,3.3,1.2c1,0.2,1.6,0.4,1.9,0.6c0.3,0.2,0.5,0.5,0.5,0.8
		c0,0.3-0.2,0.6-0.5,0.8c-0.3,0.2-0.7,0.3-1.3,0.3c-1.2,0-2.5-0.5-3.9-1.6l-1.7,1.9c1.6,1.3,3.5,2,5.5,2c1.4,0,2.6-0.3,3.4-1
		c0.9-0.6,1.3-1.5,1.3-2.5c0-1-0.3-1.8-1-2.4C199.4-63.1,198.5-63.5,197.2-63.8"/>
	<path class="st4" d="M209.7-66.2c1.4,0,2.5,0.5,3.4,1.5l1.8-1.8c-1.4-1.4-3.2-2.2-5.3-2.2c-1.9,0-3.5,0.6-4.8,1.7
		c-1.3,1.1-2,2.6-2,4.3c0,1.7,0.6,3.1,1.9,4.2c1.3,1.1,2.9,1.7,4.9,1.7c2,0,3.7-0.7,5.2-2.2l-1.9-1.7c-0.9,1-2.1,1.5-3.5,1.5
		c-1,0-1.9-0.3-2.6-1c-0.7-0.6-1.1-1.5-1.1-2.6c0-1.1,0.4-1.9,1.2-2.6C207.7-65.9,208.6-66.2,209.7-66.2"/>
	<path class="st4" d="M227.6-64.6c0-1.3-0.4-2.3-1.3-2.9c-0.9-0.6-2.3-0.9-4.3-0.9h-4.9v11.5h2.9v-3.7h2l2.9,3.7h3.6l-3.3-4.1
		C226.8-61.5,227.6-62.7,227.6-64.6 M224.2-63.2c-0.4,0.3-1,0.4-2,0.4H220v-3.4h2.2c0.9,0,1.6,0.1,1.9,0.3c0.4,0.2,0.6,0.7,0.6,1.3
		S224.5-63.5,224.2-63.2"/>
	<rect x="230.6" y="-68.4" class="st4" width="2.9" height="11.5"/>
	<path class="st4" d="M244.4-62.8c0.2-0.1,0.4-0.2,0.5-0.2c0.1,0,0.2-0.1,0.5-0.3c0.7-0.4,1-1.1,1-2c0-0.7-0.3-1.4-0.9-2
		c-0.3-0.3-0.8-0.6-1.4-0.8c-0.6-0.2-1.4-0.3-2.3-0.3h-5v11.5h5.7c1.8,0,3-0.4,3.7-1.1c0.6-0.6,0.9-1.3,0.9-2.1
		c0-0.7-0.2-1.3-0.7-1.8C245.8-62.4,245.2-62.7,244.4-62.8 M239.6-66.2h1.4c0.9,0,1.5,0.1,1.8,0.2c0.4,0.2,0.5,0.5,0.5,1
		c0,0.5-0.2,0.8-0.6,1c-0.4,0.2-1,0.2-1.8,0.2h-1.4V-66.2z M243.4-59.3c-0.4,0.2-1,0.3-1.9,0.3h-2v-2.7h1.7c1,0,1.7,0.1,2.1,0.3
		c0.4,0.2,0.7,0.5,0.7,1.1S243.8-59.5,243.4-59.3"/>
	<polygon class="st4" points="252.3,-61.5 258.1,-61.5 258.1,-63.7 252.3,-63.7 252.3,-66.1 258.8,-66.1 258.8,-68.4 249.4,-68.4 
		249.4,-56.9 259,-56.9 259,-59.1 252.3,-59.1 	"/>
</g>
<text transform="matrix(1 0 0 1 -115.9365 -378.2189)" class="st1"><tspan x="0" y="0" style="display:inline;fill:#FFFFFF; font-family:'Montserrat-Bold'; font-size:16px;">B</tspan><tspan x="12.2" y="0" style="display:inline;fill:#FFFFFF; font-family:'Montserrat-Bold'; font-size:16px;">O</tspan><tspan x="25.5" y="0" style="display:inline;fill:#FFFFFF; font-family:'Montserrat-Bold'; font-size:16px;">TÕES </tspan></text>
<g class="st1">
	<defs>
		<rect id="SVGID_5_" x="-162.6" y="-427.2" width="841.9" height="595.3"/>
	</defs>
	<clipPath id="SVGID_6_" class="st2">
		<use xlink:href="#SVGID_5_"  style="overflow:visible;"/>
	</clipPath>
	<path class="st5" d="M279.3,0.4l-30.5,8.2c-1.6,0.4-3,2.2-3,3.9v30.4c0,1.7,1.3,2.7,3,2.3l30.2-7.4c1.7-0.4,3.1-2.2,3.1-3.9
		l0.3-31.2C282.4,1,281,0,279.3,0.4 M278.9,34.7l-10.5,2.6l0.1-11.8l4.3-1.1l0-3.7l-4.4,1.1l0-1.6c0-0.7,0.2-1.3,0.6-1.8
		c0.4-0.5,0.9-0.8,1.6-1c0.3-0.1,0.7-0.1,1.1-0.1c0.4,0,0.8,0,1.1,0.1l0.8-4.4c-1.2-0.2-2.5-0.1-3.6,0.2c-1.3,0.3-2.4,0.9-3.4,1.7
		c-1,0.8-1.8,1.7-2.5,2.8c-0.6,1.1-0.9,2.3-0.9,3.7l0,1.8l-2.4,0.6l0,3.7l2.4-0.6l-0.1,11.8l-14.5,3.6l0-30.5l30.5-8.2L278.9,34.7z"
		/>
	<path class="st5" d="M171,2.3L141,9.7c-1.7,0.4-3,2.1-3,3.8v30c0,1.6,1.4,2.6,3,2.2l29.9-7.5c1.6-0.4,3-2.1,3-3.7L174,4.6
		C174,2.9,172.7,1.9,171,2.3 M170.9,35.1l-11.9,3l-3,0.8l-15,3.8l0-30l30-7.4L170.9,35.1z"/>
	<path class="st6" d="M163.3,24.6c0,3.9-3.2,7.9-7.2,8.9c-4,1-7.2-1.4-7.1-5.3c0-3.9,3.2-7.9,7.2-8.9
		C160.1,18.3,163.3,20.7,163.3,24.6z"/>
	<path class="st7" d="M166.1,14.3c-1.4,0.4-2.6-0.5-2.6-1.9c0-1.4,1.2-2.9,2.6-3.2c1.4-0.3,2.5,0.5,2.5,1.9
		C168.6,12.5,167.5,14,166.1,14.3"/>
	<path class="st5" d="M225.9,5.4L195.3,13c-1.7,0.4-3,1.9-3,3.2v24.6c0,1.3,1.4,2.1,3,1.7l30.5-7.2c1.7-0.4,3.1-1.8,3.1-3.2L229,7.2
		C229,5.8,227.6,5,225.9,5.4 M225.7,32.8l-12.3,2.9l-3.1,0.7L195.2,40l0-24.6l30.7-7.5L225.7,32.8z"/>
	<path class="st8" d="M225.9,7.9c0,0-13.3,17.7-15.4,18.2c-1.8,0.4-15.2-10.7-15.2-10.7"/>
	<path class="st5" d="M332.1-0.4L301.6,7c-1.7,0.4-3.1,2.1-3.1,3.8v30.7c0,1.7,1.4,2.7,3.1,2.3l30.7-7.9c1.7-0.4,3-2.1,3-3.8
		l-0.1-30.3C335.1,0.2,333.7-0.8,332.1-0.4 M332.2,32.9L320,36l-3.1,0.8l-15.4,3.9l0-30.6l30.5-7.5L332.2,32.9z"/>
	<path class="st5" d="M310.4,16.9c0.4,0.3,0.6,0.7,0.6,1.4c0,0.6-0.2,1.2-0.6,1.6c-0.4,0.5-0.9,0.8-1.5,0.9
		c-0.6,0.1-1.1,0.1-1.4-0.2c-0.4-0.3-0.6-0.7-0.6-1.3c0-0.6,0.2-1.2,0.6-1.6c0.4-0.5,0.9-0.8,1.4-0.9
		C309.5,16.6,310,16.7,310.4,16.9 M307,22.9l3.7-0.9l0,13l-3.7,1L307,22.9z"/>
	<path class="st5" d="M326,19.4c0.9,0.7,1.3,1.8,1.3,3.3l0,8.1l-3.7,0.9l0-7c0-0.8-0.2-1.4-0.7-1.8c-0.5-0.4-1.1-0.4-1.9-0.2
		c-0.9,0.2-1.6,0.7-2.2,1.5c-0.5,0.8-0.8,1.6-0.8,2.6l0,6.4l-3.7,0.9l0-13l3.7-0.9l0,2.3c0.9-1.8,2.4-3,4.5-3.5
		C324,18.6,325.2,18.7,326,19.4"/>
	<polyline class="st9" points="409.3,12 422.2,24.5 409.3,36 	"/>
	<rect x="459.9" y="8.8" class="st10" width="38" height="38"/>
	<polyline class="st11" points="474.8,19.6 482.4,28 474.8,36.1 	"/>
</g>
<rect x="-162.6" y="-427.2" class="st12" width="841.9" height="595.3"/>
<g id="email">
	<path d="M-77.9-0.9h-36.8c-2,0-3.7,1.3-3.7,2.9v28.9c0,1.6,1.7,2.9,3.7,2.9h36.8c2,0,3.7-1.3,3.7-2.9V2
		C-74.3,0.4-75.9-0.9-77.9-0.9 M-77.9,30.9h-14.7h-3.7h-18.4V2h36.8V30.9z"/>
	<path class="st13" d="M-114.8,2c0,0,16.2,16.9,18.4,16.9C-93.7,18.8-77.9,2-77.9,2"/>
</g>
<g id="linkedin">
	<defs>
		<rect id="SVGID_7_" x="-162.6" y="-427.2" width="841.9" height="595.3"/>
	</defs>
	<clipPath id="SVGID_8_">
		<use xlink:href="#SVGID_7_"  style="overflow:visible;"/>
	</clipPath>
	<path class="st14" d="M88.1,1.2H59.2c-1.6,0-2.9,1.3-2.9,2.9V33c0,1.6,1.3,2.9,2.9,2.9h28.9c1.6,0,2.9-1.3,2.9-2.9V4.1
		C91,2.5,89.7,1.2,88.1,1.2 M88.1,33H76.5h-2.9H59.2V4.1h28.9V33z"/>
	<g class="st14">
		<text transform="matrix(1 0 0 1 62.6543 29.7928)" style="font-family:'Montserrat-SemiBold'; font-size:22.7779px;">in</text>
	</g>
</g>
<g id="facebook">
	<path d="M-24.5,0h-28.9c-1.6,0-2.9,1.3-2.9,2.9v28.9c0,1.6,1.3,2.9,2.9,2.9h28.9c1.6,0,2.9-1.3,2.9-2.9V2.9
		C-21.6,1.3-22.9,0-24.5,0 M-24.5,31.8h-11.6H-39h-14.4V2.9h28.9V31.8z"/>
	<path d="M-33.9,14.2c-0.4,0.3-0.6,0.9-0.6,1.5v1.5h4.1v3.5h-4.1v13.2h-4.9V20.7h-2.3v-3.5h2.3v-1.7c0-1.3,0.3-2.3,0.9-3.2
		c0.6-0.9,1.3-1.6,2.3-2c1-0.5,2-0.7,3.2-0.7c1.1,0,2.3,0.2,3.4,0.7l-0.7,3.9c-0.3-0.1-0.7-0.2-1-0.3c-0.4-0.1-0.7-0.1-1-0.1
		C-33,13.7-33.5,13.9-33.9,14.2"/>
</g>
<g id="instagram">
	<path d="M31.8,0H2.9C1.3,0,0,1.3,0,2.9v28.9c0,1.6,1.3,2.9,2.9,2.9h28.9c1.6,0,2.9-1.3,2.9-2.9V2.9C34.6,1.3,33.3,0,31.8,0
		 M31.8,31.8H20.2h-2.9H2.9V2.9h28.9V31.8z"/>
	<circle class="st13" cx="17.5" cy="19.7" r="6.9"/>
	<path class="st15" d="M27,10.4c-1.4,0-2.5-1.1-2.5-2.4c0-1.4,1.1-2.5,2.5-2.5c1.3,0,2.5,1.1,2.5,2.5C29.5,9.3,28.4,10.4,27,10.4"/>
</g>
</svg>
