<?xml version="1.0" standalone="no"?>
<!DOCTYPE svg PUBLIC "-//W3C//DTD SVG 20010904//EN"
 "http://www.w3.org/TR/2001/REC-SVG-20010904/DTD/svg10.dtd">
<svg version="1.0" xmlns="http://www.w3.org/2000/svg"
 width="260.000000pt" height="260.000000pt" viewBox="0 0 260.000000 260.000000"
 preserveAspectRatio="xMidYMid meet">
<metadata>
Created by potrace 1.11, written by Peter Selinger 2001-2013
</metadata>
<g transform="translate(0.000000,260.000000) scale(0.100000,-0.100000)"
fill="#000000" stroke="none">
<path d="M2045 2540 c-55 -15 -221 -60 -370 -100 -148 -40 -308 -82 -355 -95
-47 -12 -148 -39 -225 -60 -325 -86 -581 -156 -602 -165 l-21 -9 0 -1045 c0
-723 4 -1046 11 -1046 6 0 87 21 181 46 94 25 178 47 186 49 8 2 83 22 165 44
83 22 184 50 225 61 41 11 143 38 225 61 83 22 159 43 170 45 11 2 133 35 270
72 l250 68 0 1043 c0 573 -2 1046 -5 1050 -3 5 -50 -4 -105 -19z"/>
</g>
</svg>
